<?xml version="1.0" standalone="no"?>
<!DOCTYPE svg PUBLIC "-//W3C//DTD SVG 20010904//EN"
 "http://www.w3.org/TR/2001/REC-SVG-20010904/DTD/svg10.dtd">
<svg version="1.0" xmlns="http://www.w3.org/2000/svg"
 width="700.000000pt" height="700.000000pt" viewBox="0 0 700.000000 700.000000"
 preserveAspectRatio="xMidYMid meet">
<metadata>
Created by potrace 1.14, written by Peter Selinger 2001-2017
</metadata>
<g transform="translate(0.000000,700.000000) scale(0.100000,-0.100000)"
fill="#000000" stroke="none">
<path d="M943 4769 c-283 -18 -441 -68 -554 -176 -97 -93 -152 -228 -185 -463
-21 -149 -32 -1264 -15 -1515 30 -431 108 -619 299 -718 172 -89 318 -108 837
-107 621 0 1475 74 1475 128 0 27 -180 65 -550 117 -693 97 -1071 227 -1263
434 -202 219 -26 455 458 614 176 58 337 94 875 192 439 80 498 93 455 98 -27
4 -255 25 -505 47 -250 22 -513 47 -585 55 -456 55 -746 198 -780 387 -10 51
17 133 63 193 108 143 408 293 757 379 153 37 236 52 545 96 157 23 334 52
395 65 171 39 174 62 8 89 -393 66 -1320 111 -1730 85z"/>
<path d="M4060 4605 c-35 -92 -58 -461 -81 -1310 -20 -730 -1 -1008 82 -1194
94 -208 266 -286 689 -311 250 -15 1284 9 1725 41 536 37 463 92 -365 269
-344 73 -506 115 -665 171 -419 146 -684 361 -863 699 -115 216 -185 441 -287
915 -135 632 -197 821 -235 720z"/>
</g>
</svg>
